<svg width="24" height="30" viewBox="0 0 24 30" fill="none" xmlns="http://www.w3.org/2000/svg">
<mask id="path-1-outside-1_2813_17668" maskUnits="userSpaceOnUse" x="0" y="0" width="24" height="30" fill="black">
<rect fill="white" width="24" height="30"/>
<path fill-rule="evenodd" clip-rule="evenodd" d="M10.4615 2V7.38462V11.2308H11.6154V7.38462H14.3077V8.92308H18.1538V10.4615H21.2308V12.7692H22V21.2308H20.4615V24.3077H19.6923V28.1538H8.15385V24.3077H7.38462V22H5.84615V19.6923H5.07692V17.3846H3.53846V15.8462H2V12H5.07692V13.5385H5.84615V14.3077H6.61538V15.0769H7.38462V2H7.76923H10.4615ZM14.3078 8.92308V12.7692H15.4617V8.92308H14.3078ZM18.154 14.3077V10.4615H19.3078V14.3077H18.154Z"/>
</mask>
<path fill-rule="evenodd" clip-rule="evenodd" d="M10.4615 2V7.38462V11.2308H11.6154V7.38462H14.3077V8.92308H18.1538V10.4615H21.2308V12.7692H22V21.2308H20.4615V24.3077H19.6923V28.1538H8.15385V24.3077H7.38462V22H5.84615V19.6923H5.07692V17.3846H3.53846V15.8462H2V12H5.07692V13.5385H5.84615V14.3077H6.61538V15.0769H7.38462V2H7.76923H10.4615ZM14.3078 8.92308V12.7692H15.4617V8.92308H14.3078ZM18.154 14.3077V10.4615H19.3078V14.3077H18.154Z" fill="black"/>
<path d="M10.4615 2H11.6154V0.846154H10.4615V2ZM10.4615 11.2308H9.30769V12.3846H10.4615V11.2308ZM11.6154 11.2308V12.3846H12.7692V11.2308H11.6154ZM11.6154 7.38462V6.23077H10.4615V7.38462H11.6154ZM14.3077 7.38462H15.4615V6.23077H14.3077V7.38462ZM14.3077 8.92308H13.1538V10.0769H14.3077V8.92308ZM18.1538 8.92308H19.3077V7.76923H18.1538V8.92308ZM18.1538 10.4615H17V11.6154H18.1538V10.4615ZM21.2308 10.4615H22.3846V9.30769H21.2308V10.4615ZM21.2308 12.7692H20.0769V13.9231H21.2308V12.7692ZM22 12.7692H23.1538V11.6154H22V12.7692ZM22 21.2308V22.3846H23.1538V21.2308H22ZM20.4615 21.2308V20.0769H19.3077V21.2308H20.4615ZM20.4615 24.3077V25.4615H21.6154V24.3077H20.4615ZM19.6923 24.3077V23.1538H18.5385V24.3077H19.6923ZM19.6923 28.1538V29.3077H20.8462V28.1538H19.6923ZM8.15385 28.1538H7V29.3077H8.15385V28.1538ZM8.15385 24.3077H9.30769V23.1538H8.15385V24.3077ZM7.38462 24.3077H6.23077V25.4615H7.38462V24.3077ZM7.38462 22H8.53846V20.8462H7.38462V22ZM5.84615 22H4.69231V23.1538H5.84615V22ZM5.84615 19.6923H7V18.5385H5.84615V19.6923ZM5.07692 19.6923H3.92308V20.8462H5.07692V19.6923ZM5.07692 17.3846H6.23077V16.2308H5.07692V17.3846ZM3.53846 17.3846H2.38462V18.5385H3.53846V17.3846ZM3.53846 15.8462H4.69231V14.6923H3.53846V15.8462ZM2 15.8462H0.846154V17H2V15.8462ZM2 12V10.8462H0.846154V12H2ZM5.07692 12H6.23077V10.8462H5.07692V12ZM5.07692 13.5385H3.92308V14.6923H5.07692V13.5385ZM5.84615 13.5385H7V12.3846H5.84615V13.5385ZM5.84615 14.3077H4.69231V15.4615H5.84615V14.3077ZM6.61538 14.3077H7.76923V13.1538H6.61538V14.3077ZM6.61538 15.0769H5.46154V16.2308H6.61538V15.0769ZM7.38462 15.0769V16.2308H8.53846V15.0769H7.38462ZM7.38462 2V0.846154H6.23077V2H7.38462ZM14.3078 12.7692H13.154V13.9231H14.3078V12.7692ZM14.3078 8.92308V7.76923H13.154V8.92308H14.3078ZM15.4617 12.7692V13.9231H16.6155V12.7692H15.4617ZM15.4617 8.92308H16.6155V7.76923H15.4617V8.92308ZM18.154 10.4615V9.3077H17.0001V10.4615H18.154ZM18.154 14.3077H17.0001V15.4615H18.154V14.3077ZM19.3078 10.4615H20.4617V9.3077H19.3078V10.4615ZM19.3078 14.3077V15.4615H20.4617V14.3077H19.3078ZM11.6154 7.38462V2H9.30769V7.38462H11.6154ZM11.6154 11.2308V7.38462H9.30769V11.2308H11.6154ZM11.6154 10.0769H10.4615V12.3846H11.6154V10.0769ZM10.4615 7.38462V11.2308H12.7692V7.38462H10.4615ZM14.3077 6.23077H11.6154V8.53846H14.3077V6.23077ZM15.4615 8.92308V7.38462H13.1538V8.92308H15.4615ZM18.1538 7.76923H14.3077V10.0769H18.1538V7.76923ZM19.3077 10.4615V8.92308H17V10.4615H19.3077ZM21.2308 9.30769H18.1538V11.6154H21.2308V9.30769ZM22.3846 12.7692V10.4615H20.0769V12.7692H22.3846ZM22 11.6154H21.2308V13.9231H22V11.6154ZM23.1538 21.2308V12.7692H20.8462V21.2308H23.1538ZM20.4615 22.3846H22V20.0769H20.4615V22.3846ZM21.6154 24.3077V21.2308H19.3077V24.3077H21.6154ZM19.6923 25.4615H20.4615V23.1538H19.6923V25.4615ZM20.8462 28.1538V24.3077H18.5385V28.1538H20.8462ZM8.15385 29.3077H19.6923V27H8.15385V29.3077ZM7 24.3077V28.1538H9.30769V24.3077H7ZM7.38462 25.4615H8.15385V23.1538H7.38462V25.4615ZM6.23077 22V24.3077H8.53846V22H6.23077ZM5.84615 23.1538H7.38462V20.8462H5.84615V23.1538ZM4.69231 19.6923V22H7V19.6923H4.69231ZM5.07692 20.8462H5.84615V18.5385H5.07692V20.8462ZM3.92308 17.3846V19.6923H6.23077V17.3846H3.92308ZM3.53846 18.5385H5.07692V16.2308H3.53846V18.5385ZM2.38462 15.8462V17.3846H4.69231V15.8462H2.38462ZM2 17H3.53846V14.6923H2V17ZM0.846154 12V15.8462H3.15385V12H0.846154ZM5.07692 10.8462H2V13.1538H5.07692V10.8462ZM6.23077 13.5385V12H3.92308V13.5385H6.23077ZM5.84615 12.3846H5.07692V14.6923H5.84615V12.3846ZM7 14.3077V13.5385H4.69231V14.3077H7ZM6.61538 13.1538H5.84615V15.4615H6.61538V13.1538ZM7.76923 15.0769V14.3077H5.46154V15.0769H7.76923ZM7.38462 13.9231H6.61538V16.2308H7.38462V13.9231ZM6.23077 2V15.0769H8.53846V2H6.23077ZM7.76923 0.846154H7.38462V3.15385H7.76923V0.846154ZM10.4615 0.846154H7.76923V3.15385H10.4615V0.846154ZM15.4617 12.7692V8.92308H13.154V12.7692H15.4617ZM15.4617 11.6154H14.3078V13.9231H15.4617V11.6154ZM14.3078 8.92308V12.7692H16.6155V8.92308H14.3078ZM14.3078 10.0769H15.4617V7.76923H14.3078V10.0769ZM17.0001 10.4615V14.3077H19.3078V10.4615H17.0001ZM19.3078 9.3077H18.154V11.6154H19.3078V9.3077ZM20.4617 14.3077V10.4615H18.154V14.3077H20.4617ZM18.154 15.4615H19.3078V13.1538H18.154V15.4615Z" fill="white" mask="url(#path-1-outside-1_2813_17668)"/>
</svg>
